<svg width="32" height="32" viewBox="0 0 32 32" fill="none" xmlns="http://www.w3.org/2000/svg">
<circle cx="16" cy="16" r="16" fill="black"/>
<circle cx="16" cy="14" r="3.25" stroke="white" stroke-width="1.5"/>
<path d="M16.1309 21.7345L11.8185 23.3295C11.6552 23.3899 11.4817 23.2691 11.4817 23.095L11.4817 19.905C11.4817 19.7309 11.6552 19.6101 11.8185 19.6705L16.1309 21.2655C16.3486 21.346 16.3486 21.654 16.1309 21.7345Z" stroke="white" stroke-width="1.5"/>
<path d="M15.8692 21.7345L20.1817 23.3295C20.3449 23.3899 20.5184 23.2691 20.5184 23.095L20.5184 19.905C20.5184 19.7309 20.3449 19.6101 20.1817 19.6705L15.8692 21.2655C15.6515 21.346 15.6515 21.654 15.8692 21.7345Z" stroke="white" stroke-width="1.5"/>
</svg>
