<svg width="36" height="36" viewBox="0 0 36 36" fill="none" xmlns="http://www.w3.org/2000/svg">
<circle cx="18" cy="18" r="18" fill="black"/>
<circle cx="18" cy="15" r="3.25" stroke="white" stroke-width="1.5"/>
<mask id="path-3-inside-1_19_23" fill="white">
<path d="M12 24C12 21.7909 13.7909 20 16 20H20C22.2091 20 24 21.7909 24 24V24H12V24Z"/>
</mask>
<path d="M10.5 24C10.5 20.9624 12.9624 18.5 16 18.5H20C23.0376 18.5 25.5 20.9624 25.5 24H22.5C22.5 22.6193 21.3807 21.5 20 21.5H16C14.6193 21.5 13.5 22.6193 13.5 24H10.5ZM24 24H12H24ZM10.5 24C10.5 20.9624 12.9624 18.5 16 18.5V21.5C14.6193 21.5 13.5 22.6193 13.5 24H10.5ZM20 18.5C23.0376 18.5 25.5 20.9624 25.5 24H22.5C22.5 22.6193 21.3807 21.5 20 21.5V18.5Z" fill="white" mask="url(#path-3-inside-1_19_23)"/>
</svg>
