<svg width="32" height="32" viewBox="0 0 32 32" fill="none" xmlns="http://www.w3.org/2000/svg">
<circle cx="16" cy="16" r="16" fill="black"/>
<circle cx="16" cy="14" r="3.25" stroke="white" stroke-width="1.5"/>
<mask id="path-3-inside-1_29_37" fill="white">
<path d="M10 23C10 20.7909 11.7909 19 14 19H18C20.2091 19 22 20.7909 22 23V23H10V23Z"/>
</mask>
<path d="M8.5 23C8.5 19.9624 10.9624 17.5 14 17.5H18C21.0376 17.5 23.5 19.9624 23.5 23H20.5C20.5 21.6193 19.3807 20.5 18 20.5H14C12.6193 20.5 11.5 21.6193 11.5 23H8.5ZM22 23H10H22ZM8.5 23C8.5 19.9624 10.9624 17.5 14 17.5V20.5C12.6193 20.5 11.5 21.6193 11.5 23H8.5ZM18 17.5C21.0376 17.5 23.5 19.9624 23.5 23H20.5C20.5 21.6193 19.3807 20.5 18 20.5V17.5Z" fill="white" mask="url(#path-3-inside-1_29_37)"/>
</svg>
